<svg width="140" height="112" fill="none" xmlns="http://www.w3.org/2000/svg"><path d="M113.135 23.988V37.73a2.057 2.057 0 01-2.051 2.06H95.022a2.057 2.057 0 01-2.05-2.06V23.988c0-1.14.918-2.061 2.05-2.061h16.062c1.132 0 2.051.92 2.051 2.06zM9.79 21.925H2.05c-1.132 0-2.05.923-2.05 2.061v13.742c0 1.139.918 2.061 2.05 2.061h7.74c1.132 0 2.05-.922 2.05-2.06V23.986a2.056 2.056 0 00-2.05-2.062zM140 23.988v13.741a2.057 2.057 0 01-2.051 2.062h-7.738a2.057 2.057 0 01-2.051-2.062V23.988c0-1.14.919-2.061 2.051-2.061h7.738c1.132 0 2.051.92 2.051 2.06z" fill="#555760"/><path d="M140 31.06v6.67a2.057 2.057 0 01-2.051 2.06h-7.738a2.057 2.057 0 01-2.051-2.06v-6.67c0 1.137.919 2.06 2.051 2.06h7.738A2.057 2.057 0 00140 31.06zM11.84 31.058v6.67a2.057 2.057 0 01-2.05 2.061H2.05A2.057 2.057 0 010 37.728v-6.67c0 1.138.919 2.061 2.05 2.061h7.74c1.131 0 2.05-.923 2.05-2.061zM113.135 33.121v4.609a2.057 2.057 0 01-2.051 2.061H95.022a2.057 2.057 0 01-2.05-2.061v-4.609h20.163z" fill="#2E384D"/><path d="M18.67 13.05v35.615a5.487 5.487 0 01-1.602 3.884 5.424 5.424 0 01-3.863 1.608 5.482 5.482 0 01-5.466-5.491V13.05a5.482 5.482 0 015.466-5.491c3.019 0 5.466 2.457 5.466 5.49z" fill="#3FB023"/><path d="M18.67 13.05v35.615a5.487 5.487 0 01-1.602 3.883 5.424 5.424 0 01-3.863 1.608 5.392 5.392 0 01-2.732-.736 5.496 5.496 0 002.732-4.755V13.05c0-2.034-1.1-3.807-2.732-4.755a5.392 5.392 0 012.732-.737c3.019 0 5.466 2.457 5.466 5.492z" fill="#4CD62B"/><path d="M132.276 13.049v35.615a5.487 5.487 0 01-1.603 3.884 5.423 5.423 0 01-3.863 1.608 5.482 5.482 0 01-5.466-5.491V13.048a5.482 5.482 0 015.466-5.491c3.019 0 5.466 2.457 5.466 5.491z" fill="#3FB023"/><path d="M132.276 13.049v35.615a5.487 5.487 0 01-1.603 3.884 5.423 5.423 0 01-3.863 1.608 5.39 5.39 0 01-2.732-.737c.416-.24.796-.533 1.132-.871a5.497 5.497 0 001.6-3.884V13.05a5.488 5.488 0 00-2.732-4.755 5.391 5.391 0 012.732-.736c3.019 0 5.466 2.457 5.466 5.491z" fill="#4DD82B"/><path d="M97.073 23.806V37.73c0 .453-.15.895-.427 1.256L85.922 52.974l3.188 33.538a2.076 2.076 0 01-.525 1.583 2.045 2.045 0 01-1.517.674H52.932c-.58 0-1.13-.245-1.518-.674a2.076 2.076 0 01-.525-1.583l.583-6.118.104-1.099 2.469-25.996L43.739 45.3a2.063 2.063 0 01-.799-1.63V15.867c0-1.138.92-2.062 2.051-2.062h42.126c5.488 0 9.956 4.486 9.956 10.002z" fill="#FFD3C0"/><path d="M97.073 23.806V37.73c0 .453-.15.895-.427 1.256L85.922 52.974l3.188 33.538a2.076 2.076 0 01-.525 1.583 2.045 2.045 0 01-1.517.674H52.932c-.58 0-1.13-.245-1.518-.674a2.076 2.076 0 01-.525-1.583l.582-6.118.104-1.099h28.11c.58 0 1.13-.245 1.517-.673.389-.432.58-1.006.525-1.583l-2.094-24.194L91.45 37.207c.276-.36.426-.802.426-1.258v-13.92c0-3.406-3.341-6.418-5.936-8.224h1.176c5.488 0 9.956 4.486 9.956 10.002z" fill="#FFB9A1"/><path d="M85.832 23.988v7.42c0 .399-.115.792-.334 1.124l-.383.589-3.721 5.733a2.044 2.044 0 01-1.718.937h-50.76a2.057 2.057 0 01-2.051-2.061V23.988c0-.552.219-1.08.61-1.468a2.04 2.04 0 011.465-.593h54.863a2.056 2.056 0 012.029 2.06z" fill="#555760"/><path d="M26.865 33.12h58.25l-3.721 5.733a2.044 2.044 0 01-1.718.938h-50.76a2.057 2.057 0 01-2.051-2.062v-4.608z" fill="#2E384D"/><path d="M30.967 6.179v49.357c0 3.408-2.756 6.178-6.147 6.178a6.057 6.057 0 01-3.073-.833 6.174 6.174 0 01-3.077-5.345V6.179A6.175 6.175 0 0121.747.833 6.058 6.058 0 0124.82.001c3.39 0 6.147 2.77 6.147 6.178z" fill="#4953B8"/><path d="M30.967 6.179v49.357c0 3.408-2.756 6.178-6.147 6.178a6.058 6.058 0 01-3.073-.833 6.181 6.181 0 003.073-5.345V6.179A6.181 6.181 0 0021.747.833 6.058 6.058 0 0124.82.001c3.39 0 6.147 2.77 6.147 6.178z" fill="#5965E0"/><path d="M121.33 6.178v49.357c0 3.408-2.757 6.179-6.147 6.179a6.058 6.058 0 01-3.074-.833 6.175 6.175 0 01-3.076-5.346V6.178a6.175 6.175 0 013.076-5.345A6.058 6.058 0 01115.183 0c3.39 0 6.147 2.77 6.147 6.178z" fill="#5297E8"/><path d="M121.33 6.178v49.357c0 3.408-2.756 6.179-6.147 6.179a6.057 6.057 0 01-3.073-.833 6.18 6.18 0 003.073-5.346V6.178A6.18 6.18 0 00112.11.833 6.057 6.057 0 01115.183 0c3.391 0 6.147 2.77 6.147 6.178z" fill="#5965E0"/><path d="M48.303 8.404c-2.961 0-5.362 2.412-5.362 5.388V25.67c0 2.976 2.4 5.388 5.362 5.388 2.96 0 5.361-2.412 5.361-5.388V13.792c0-2.976-2.4-5.388-5.361-5.388z" fill="#FFD3C0"/><path d="M59.025 8.404c-2.961 0-5.361 2.412-5.361 5.388V25.67c0 2.976 2.4 5.388 5.36 5.388 2.962 0 5.362-2.412 5.362-5.388V13.792c0-2.976-2.4-5.388-5.361-5.388z" fill="#FFB9A1"/><path d="M69.748 8.404c-2.962 0-5.362 2.412-5.362 5.388V25.67c0 2.976 2.4 5.388 5.362 5.388 2.96 0 5.36-2.412 5.36-5.388V13.792c0-2.976-2.4-5.388-5.36-5.388z" fill="#FFD3C0"/><path d="M80.47 8.404c-2.96 0-5.36 2.412-5.36 5.388V25.67c0 2.976 2.4 5.388 5.36 5.388 2.962 0 5.362-2.412 5.362-5.388V13.792c0-2.976-2.4-5.388-5.361-5.388z" fill="#FFB9A1"/><path d="M97.65 111.307c-.39.44-.949.693-1.534.693H43.884a2.054 2.054 0 01-1.534-.693 2.068 2.068 0 01-.503-1.61l.572-4.843 2.165-18.389a2.053 2.053 0 012.037-1.819H93.38c1.042 0 1.917.783 2.037 1.82l2.737 23.231a2.068 2.068 0 01-.503 1.61z" fill="#EEF6FF"/><path d="M97.65 111.307c-.39.44-.949.693-1.534.693H43.884a2.054 2.054 0 01-1.534-.693 2.068 2.068 0 01-.503-1.61l.572-4.843H87.92a2.06 2.06 0 002.034-2.303l-1.807-16.086a2.057 2.057 0 00-2.037-1.819h7.268c1.042 0 1.917.783 2.037 1.82l2.737 23.231a2.068 2.068 0 01-.503 1.61z" fill="#DAE6EF"/></svg>